<svg xmlns="http://www.w3.org/2000/svg" xmlns:xlink="http://www.w3.org/1999/xlink" width="500" zoomAndPan="magnify" viewBox="0 0 375 374.999991" height="500" preserveAspectRatio="xMidYMid meet" version="1.2"><defs><clipPath id="13712567e2"><path d="M 148 96.488281 L 227 96.488281 L 227 178.238281 L 148 178.238281 Z M 148 96.488281 "/></clipPath><clipPath id="7b61d5650d"><path d="M 136.035156 130 L 145 130 L 145 159 L 136.035156 159 Z M 136.035156 130 "/></clipPath><clipPath id="4bd7353c17"><path d="M 229 130 L 238.785156 130 L 238.785156 159 L 229 159 Z M 229 130 "/></clipPath></defs><g id="7ed7ad733a"><g style="fill:#000000;fill-opacity:1;"><g transform="translate(89.803375, 219.452013)"><path style="stroke:none" d="M 21.421875 0.953125 C 17.578125 0.953125 13.847656 0.476562 10.234375 -0.46875 C 6.617188 -1.414062 3.679688 -2.679688 1.421875 -4.265625 L 5.828125 -14.171875 C 7.953125 -12.765625 10.414062 -11.628906 13.21875 -10.765625 C 16.019531 -9.910156 18.773438 -9.484375 21.484375 -9.484375 C 26.640625 -9.484375 29.21875 -10.773438 29.21875 -13.359375 C 29.21875 -14.710938 28.484375 -15.71875 27.015625 -16.375 C 25.546875 -17.03125 23.1875 -17.71875 19.9375 -18.4375 C 16.363281 -19.207031 13.378906 -20.03125 10.984375 -20.90625 C 8.585938 -21.789062 6.53125 -23.203125 4.8125 -25.140625 C 3.09375 -27.085938 2.234375 -29.710938 2.234375 -33.015625 C 2.234375 -35.910156 3.023438 -38.519531 4.609375 -40.84375 C 6.191406 -43.175781 8.550781 -45.019531 11.6875 -46.375 C 14.832031 -47.726562 18.6875 -48.40625 23.25 -48.40625 C 26.375 -48.40625 29.445312 -48.054688 32.46875 -47.359375 C 35.5 -46.660156 38.164062 -45.628906 40.46875 -44.265625 L 36.34375 -34.3125 C 31.820312 -36.75 27.4375 -37.96875 23.1875 -37.96875 C 20.519531 -37.96875 18.578125 -37.570312 17.359375 -36.78125 C 16.140625 -35.988281 15.53125 -34.957031 15.53125 -33.6875 C 15.53125 -32.425781 16.25 -31.476562 17.6875 -30.84375 C 19.132812 -30.21875 21.460938 -29.5625 24.671875 -28.875 C 28.296875 -28.113281 31.289062 -27.289062 33.65625 -26.40625 C 36.03125 -25.519531 38.085938 -24.117188 39.828125 -22.203125 C 41.566406 -20.285156 42.4375 -17.675781 42.4375 -14.375 C 42.4375 -11.53125 41.644531 -8.953125 40.0625 -6.640625 C 38.476562 -4.335938 36.101562 -2.492188 32.9375 -1.109375 C 29.78125 0.265625 25.941406 0.953125 21.421875 0.953125 Z M 21.421875 0.953125 "/></g></g><g style="fill:#000000;fill-opacity:1;"><g transform="translate(128.104584, 219.452013)"><path style="stroke:none" d="M 52 -37.359375 C 56.519531 -37.359375 60.125 -36 62.8125 -33.28125 C 65.5 -30.570312 66.84375 -26.484375 66.84375 -21.015625 L 66.84375 0 L 53.96875 0 L 53.96875 -18.921875 C 53.96875 -21.492188 53.476562 -23.390625 52.5 -24.609375 C 51.53125 -25.828125 50.164062 -26.4375 48.40625 -26.4375 C 46.457031 -26.4375 44.894531 -25.757812 43.71875 -24.40625 C 42.550781 -23.050781 41.96875 -20.992188 41.96875 -18.234375 L 41.96875 0 L 29.078125 0 L 29.078125 -18.921875 C 29.078125 -23.929688 27.226562 -26.4375 23.53125 -26.4375 C 21.539062 -26.4375 19.957031 -25.757812 18.78125 -24.40625 C 17.601562 -23.050781 17.015625 -20.992188 17.015625 -18.234375 L 17.015625 0 L 4.140625 0 L 4.140625 -36.75 L 16.40625 -36.75 L 16.40625 -32.875 C 17.757812 -34.375 19.375 -35.492188 21.25 -36.234375 C 23.125 -36.984375 25.171875 -37.359375 27.390625 -37.359375 C 29.960938 -37.359375 32.265625 -36.882812 34.296875 -35.9375 C 36.335938 -34.988281 37.988281 -33.539062 39.25 -31.59375 C 40.695312 -33.445312 42.523438 -34.867188 44.734375 -35.859375 C 46.953125 -36.859375 49.375 -37.359375 52 -37.359375 Z M 52 -37.359375 "/></g></g><g style="fill:#000000;fill-opacity:1;"><g transform="translate(193.386678, 219.452013)"><path style="stroke:none" d="M 19.796875 -37.359375 C 25.898438 -37.359375 30.554688 -35.96875 33.765625 -33.1875 C 36.972656 -30.40625 38.578125 -26.144531 38.578125 -20.40625 L 38.578125 0 L 26.578125 0 L 26.578125 -4.75 C 24.722656 -1.175781 21.109375 0.609375 15.734375 0.609375 C 12.878906 0.609375 10.410156 0.113281 8.328125 -0.875 C 6.253906 -1.875 4.6875 -3.21875 3.625 -4.90625 C 2.5625 -6.601562 2.03125 -8.539062 2.03125 -10.71875 C 2.03125 -14.195312 3.363281 -16.894531 6.03125 -18.8125 C 8.695312 -20.726562 12.8125 -21.6875 18.375 -21.6875 L 25.6875 -21.6875 C 25.46875 -25.582031 22.867188 -27.53125 17.890625 -27.53125 C 16.128906 -27.53125 14.34375 -27.242188 12.53125 -26.671875 C 10.726562 -26.109375 9.195312 -25.332031 7.9375 -24.34375 L 3.59375 -33.078125 C 5.625 -34.441406 8.097656 -35.492188 11.015625 -36.234375 C 13.929688 -36.984375 16.859375 -37.359375 19.796875 -37.359375 Z M 19.328125 -7.53125 C 20.816406 -7.53125 22.125 -7.890625 23.25 -8.609375 C 24.382812 -9.328125 25.195312 -10.390625 25.6875 -11.796875 L 25.6875 -14.984375 L 20.140625 -14.984375 C 16.390625 -14.984375 14.515625 -13.738281 14.515625 -11.25 C 14.515625 -10.125 14.941406 -9.222656 15.796875 -8.546875 C 16.648438 -7.867188 17.828125 -7.53125 19.328125 -7.53125 Z M 19.328125 -7.53125 "/></g></g><g style="fill:#000000;fill-opacity:1;"><g transform="translate(230.399862, 219.452013)"><path style="stroke:none" d="M 16.40625 -32.34375 C 17.71875 -34.007812 19.421875 -35.257812 21.515625 -36.09375 C 23.617188 -36.9375 26.03125 -37.359375 28.75 -37.359375 L 28.75 -25.765625 C 27.570312 -25.898438 26.597656 -25.96875 25.828125 -25.96875 C 23.066406 -25.96875 20.90625 -25.21875 19.34375 -23.71875 C 17.789062 -22.226562 17.015625 -19.945312 17.015625 -16.875 L 17.015625 0 L 4.140625 0 L 4.140625 -36.75 L 16.40625 -36.75 Z M 16.40625 -32.34375 "/></g></g><g style="fill:#000000;fill-opacity:1;"><g transform="translate(254.871674, 219.452013)"><path style="stroke:none" d="M 29.484375 -1.484375 C 28.398438 -0.804688 27.078125 -0.289062 25.515625 0.0625 C 23.960938 0.425781 22.304688 0.609375 20.546875 0.609375 C 15.753906 0.609375 12.066406 -0.5625 9.484375 -2.90625 C 6.910156 -5.257812 5.625 -8.765625 5.625 -13.421875 L 5.625 -25.765625 L 0.265625 -25.765625 L 0.265625 -35.390625 L 5.625 -35.390625 L 5.625 -44.953125 L 18.515625 -44.953125 L 18.515625 -35.390625 L 26.921875 -35.390625 L 26.921875 -25.765625 L 18.515625 -25.765625 L 18.515625 -13.5625 C 18.515625 -12.25 18.863281 -11.21875 19.5625 -10.46875 C 20.257812 -9.726562 21.195312 -9.359375 22.375 -9.359375 C 23.863281 -9.359375 25.175781 -9.742188 26.3125 -10.515625 Z M 29.484375 -1.484375 "/></g></g><g clip-rule="nonzero" clip-path="url(#13712567e2)"><path style=" stroke:none;fill-rule:evenodd;fill:#000000;fill-opacity:1;" d="M 209.109375 178.234375 L 165.652344 178.234375 C 156.078125 178.234375 148.316406 170.476562 148.316406 160.972656 L 148.316406 132.820312 C 148.316406 123.257812 156.078125 115.5 165.652344 115.5 L 185.515625 115.5 L 185.574219 108.882812 C 182.984375 108.101562 181.058594 105.695312 181.058594 102.808594 C 181.058594 99.320312 183.949219 96.492188 187.441406 96.492188 C 190.929688 96.492188 193.820312 99.320312 193.820312 102.808594 C 193.820312 105.695312 191.835938 108.160156 189.1875 108.941406 L 189.125 115.5 L 209.109375 115.5 C 218.621094 115.5 226.386719 123.257812 226.386719 132.820312 L 226.386719 161.03125 C 226.386719 170.535156 218.621094 178.234375 209.109375 178.234375 Z M 171.066406 150.925781 C 165.953125 150.925781 161.917969 146.898438 161.917969 141.84375 C 161.917969 136.730469 165.953125 132.703125 171.066406 132.703125 C 176.183594 132.703125 180.15625 136.730469 180.15625 141.84375 C 180.15625 146.898438 176.183594 150.925781 171.066406 150.925781 Z M 171.066406 136.3125 C 167.9375 136.3125 165.53125 138.714844 165.53125 141.84375 C 165.53125 144.910156 167.9375 147.316406 171.066406 147.316406 C 174.136719 147.316406 176.605469 144.910156 176.605469 141.84375 C 176.605469 138.714844 174.136719 136.3125 171.066406 136.3125 Z M 203.753906 150.566406 C 198.636719 150.566406 194.542969 146.476562 194.542969 141.421875 C 194.542969 136.371094 198.636719 132.28125 203.753906 132.28125 C 208.75 132.28125 212.84375 136.371094 212.84375 141.421875 C 212.84375 146.476562 208.75 150.566406 203.753906 150.566406 Z M 203.753906 135.890625 C 200.621094 135.890625 198.15625 138.414062 198.15625 141.421875 C 198.15625 144.492188 200.621094 147.015625 203.753906 147.015625 C 206.824219 147.015625 209.230469 144.492188 209.230469 141.421875 C 209.230469 138.296875 206.761719 135.890625 203.753906 135.890625 Z M 186.71875 161.511719 C 183.285156 161.511719 180.277344 159.890625 178.59375 158.445312 C 177.808594 157.785156 177.75 156.582031 178.410156 155.917969 C 179.074219 155.199219 180.15625 155.078125 180.941406 155.800781 C 181.480469 156.28125 186.71875 160.429688 191.714844 155.859375 C 192.4375 155.199219 193.519531 155.199219 194.300781 155.917969 C 194.964844 156.703125 194.964844 157.785156 194.242188 158.507812 C 191.714844 160.671875 189.125 161.511719 186.71875 161.511719 Z M 186.71875 161.511719 "/></g><g clip-rule="nonzero" clip-path="url(#7b61d5650d)"><path style=" stroke:none;fill-rule:evenodd;fill:#000000;fill-opacity:1;" d="M 144.703125 158.925781 L 143.980469 158.925781 C 139.648438 158.925781 136.035156 155.378906 136.035156 150.988281 L 136.035156 138.714844 C 136.035156 134.324219 139.648438 130.714844 143.980469 130.714844 L 144.824219 130.714844 C 144.761719 131.378906 144.703125 132.101562 144.703125 132.820312 Z M 144.703125 158.925781 "/></g><g clip-rule="nonzero" clip-path="url(#4bd7353c17)"><path style=" stroke:none;fill-rule:evenodd;fill:#000000;fill-opacity:1;" d="M 230.71875 158.925781 L 229.996094 158.925781 L 229.996094 132.820312 C 229.996094 132.039062 229.9375 131.316406 229.875 130.65625 L 230.71875 130.65625 C 235.171875 130.65625 238.785156 134.207031 238.785156 138.65625 L 238.785156 150.988281 C 238.785156 155.4375 235.171875 158.925781 230.71875 158.925781 Z M 230.71875 158.925781 "/></g><g style="fill:#0a2635;fill-opacity:1;"><g transform="translate(148.441547, 235.611055)"><path style="stroke:none" d="M 10.578125 -6.484375 L 8.453125 0 L 6.84375 0 L 5.40625 -4.390625 L 3.9375 0 L 2.328125 0 L 0.203125 -6.484375 L 1.765625 -6.484375 L 3.21875 -1.921875 L 4.75 -6.484375 L 6.140625 -6.484375 L 7.625 -1.890625 L 9.140625 -6.484375 Z M 10.578125 -6.484375 "/></g></g><g style="fill:#0a2635;fill-opacity:1;"><g transform="translate(166.638146, 235.611055)"><path style="stroke:none" d="M 5.046875 -1.390625 L 2.03125 -1.390625 L 1.453125 0 L -0.078125 0 L 2.8125 -6.484375 L 4.296875 -6.484375 L 7.1875 0 L 5.609375 0 Z M 4.5625 -2.53125 L 3.546875 -5.015625 L 2.515625 -2.53125 Z M 4.5625 -2.53125 "/></g></g><g style="fill:#0a2635;fill-opacity:1;"><g transform="translate(181.155433, 235.611055)"><path style="stroke:none" d="M 0.765625 -6.484375 L 2.265625 -6.484375 L 2.265625 -1.21875 L 5.515625 -1.21875 L 5.515625 0 L 0.765625 0 Z M 0.765625 -6.484375 "/></g></g><g style="fill:#0a2635;fill-opacity:1;"><g transform="translate(194.171333, 235.611055)"><path style="stroke:none" d="M 0.765625 -6.484375 L 2.265625 -6.484375 L 2.265625 -1.21875 L 5.515625 -1.21875 L 5.515625 0 L 0.765625 0 Z M 0.765625 -6.484375 "/></g></g><g style="fill:#0a2635;fill-opacity:1;"><g transform="translate(207.187233, 235.611055)"><path style="stroke:none" d="M 5.796875 -1.203125 L 5.796875 0 L 0.765625 0 L 0.765625 -6.484375 L 5.671875 -6.484375 L 5.671875 -5.28125 L 2.265625 -5.28125 L 2.265625 -3.875 L 5.265625 -3.875 L 5.265625 -2.703125 L 2.265625 -2.703125 L 2.265625 -1.203125 Z M 5.796875 -1.203125 "/></g></g><g style="fill:#0a2635;fill-opacity:1;"><g transform="translate(220.824078, 235.611055)"><path style="stroke:none" d="M 2.109375 -5.265625 L 0.03125 -5.265625 L 0.03125 -6.484375 L 5.6875 -6.484375 L 5.6875 -5.265625 L 3.609375 -5.265625 L 3.609375 0 L 2.109375 0 Z M 2.109375 -5.265625 "/></g></g></g></svg>